HIERARCHY
ROOT Hips
{
	OFFSET 52.799099 -12.988715 94.083702
	CHANNELS 6 Xposition Yposition Zposition Xrotation Yrotation Zrotation
	JOINT spine
	{
		OFFSET 0.000000 -0.448574 7.800591
		CHANNELS 3 Xrotation Yrotation Zrotation
		JOINT spine1
		{
			OFFSET 0.000000 -0.000002 10.136398
			CHANNELS 3 Xrotation Yrotation Zrotation
			JOINT spine2
			{
				OFFSET 0.000000 -0.000002 9.712509
				CHANNELS 3 Xrotation Yrotation Zrotation
				JOINT Neck
				{
					OFFSET 0.000000 -1.188873 24.936096
					CHANNELS 3 Xrotation Yrotation Zrotation
					JOINT Head
					{
						OFFSET 0.000000 -0.000001 7.533844
						CHANNELS 3 Xrotation Yrotation Zrotation
						End Site
						{
							OFFSET 0.000000 6.014017 18.236099
						}
					}
				}
				JOINT RightShoulder
				{
					OFFSET -4.089649 0.569455 10.488800
					CHANNELS 3 Xrotation Yrotation Zrotation
					JOINT RightArm
					{
						OFFSET 0.000000 -0.000002 13.757004
						CHANNELS 3 Xrotation Yrotation Zrotation
						JOINT RightArmRoll
						{
							OFFSET 0.000000 -0.000001 6.944778
							CHANNELS 3 Xrotation Yrotation Zrotation
							JOINT RightForeArm
							{
								OFFSET 0.000000 -0.000004 20.227707
								CHANNELS 3 Xrotation Yrotation Zrotation
								JOINT RightForeArmRoll
								{
									OFFSET 0.000000 -0.000001 7.793121
									CHANNELS 3 Xrotation Yrotation Zrotation
									JOINT RightHand
									{
										OFFSET 0.000000 -0.000003 15.639099
										CHANNELS 3 Xrotation Yrotation Zrotation
										End Site
										{
											OFFSET 0.000000 0.000000 0.100006
										}
									}
								}
							}
						}
					}
				}
				JOINT LeftShoulder
				{
					OFFSET 4.089649 0.569455 10.488800
					CHANNELS 3 Xrotation Yrotation Zrotation
					JOINT LeftArm
					{
						OFFSET 0.000000 -0.000002 13.757004
						CHANNELS 3 Xrotation Yrotation Zrotation
						JOINT LeftArmRoll
						{
							OFFSET 0.000000 -0.000001 6.944778
							CHANNELS 3 Xrotation Yrotation Zrotation
							JOINT LeftForeArm
							{
								OFFSET 0.000000 -0.000004 20.227707
								CHANNELS 3 Xrotation Yrotation Zrotation
								JOINT LeftForeArmRoll
								{
									OFFSET 0.000000 -0.000001 7.793121
									CHANNELS 3 Xrotation Yrotation Zrotation
									JOINT LeftHand
									{
										OFFSET 0.000000 -0.000003 15.639099
										CHANNELS 3 Xrotation Yrotation Zrotation
										End Site
										{
											OFFSET 0.000000 0.000000 0.100006
										}
									}
								}
							}
						}
					}
				}
			}
		}
	}
	JOINT RightUpLeg
	{
		OFFSET -6.914158 1.063581 -1.267883
		CHANNELS 3 Xrotation Yrotation Zrotation
		JOINT RightUpLegRoll
		{
			OFFSET 0.000000 -0.000003 18.337799
			CHANNELS 3 Xrotation Yrotation Zrotation
			JOINT RightLeg
			{
				OFFSET 0.000000 0.000004 -22.708504
				CHANNELS 3 Xrotation Yrotation Zrotation
				JOINT RightLegRoll
				{
					OFFSET 0.000000 -0.000004 22.782799
					CHANNELS 3 Xrotation Yrotation Zrotation
					JOINT RightFoot
					{
						OFFSET 0.000000 -0.000003 18.962898
						CHANNELS 3 Xrotation Yrotation Zrotation
						JOINT RightToeBase
						{
							OFFSET 0.000000 -0.000003 15.852005
							CHANNELS 3 Xrotation Yrotation Zrotation
							End Site
							{
								OFFSET 0.006718 0.884891 7.677017
							}
						}
					}
				}
			}
		}
	}
	JOINT LeftUpLeg
	{
		OFFSET 6.914158 1.063581 -1.267883
		CHANNELS 3 Xrotation Yrotation Zrotation
		JOINT LeftUpLegRoll
		{
			OFFSET 0.000000 -0.000003 18.337898
			CHANNELS 3 Xrotation Yrotation Zrotation
			JOINT LeftLeg
			{
				OFFSET 0.000000 -0.000004 22.708405
				CHANNELS 3 Xrotation Yrotation Zrotation
				JOINT LeftLegRoll
				{
					OFFSET 0.000000 -0.000004 22.993408
					CHANNELS 3 Xrotation Yrotation Zrotation
					JOINT LeftFoot
					{
						OFFSET 0.000000 -0.000003 18.752197
						CHANNELS 3 Xrotation Yrotation Zrotation
						JOINT LeftToeBase
						{
							OFFSET 0.000000 -0.000003 15.852005
							CHANNELS 3 Xrotation Yrotation Zrotation
							End Site
							{
								OFFSET -0.030113 0.884892 7.677017
							}
						}
					}
				}
			}
		}
	}
}
MOTION
Frames: 9
Frame Time: 0.041667
53.164505 -14.679814 94.044609 -7.182907 -0.537758 1.291329 -2.607178 0.163644 0.311400 -1.215178 0.316116 0.629664 0.429872 0.323638 0.626790 37.373692 3.271583 -2.518171 -14.557069 -5.294553 -2.057698 -15.486076 -24.150885 -17.299619 52.126880 3.386581 87.276499 0.000003 0.000001 0.000010 59.902303 -1.126341 0.727706 -0.000002 0.000001 -2.999999 -5.000302 -7.999049 0.000141 -14.492237 24.380413 15.829518 231.737199 180.422999 -279.189009 0.000000 0.000019 -0.000002 68.244443 -5.226064 -2.643351 -0.000003 -0.000004 3.007561 -5.000380 7.999256 -0.000109 3.411018 -175.973117 0.942790 -179.999991 0.000005 -0.987996 167.449478 0.112254 -0.843013 0.000004 -0.000003 0.152717 72.813279 5.665037 5.364569 25.456959 -7.355616 0.000001 8.243053 -180.245455 6.197024 -0.000005 -0.000004 -1.427740 -7.080831 4.799209 0.430007 -0.000001 -0.000002 -0.214056 72.991506 -7.736989 0.601391 25.456950 7.355613 -0.000001 
53.170403 -14.681910 94.046310 -7.191165 -0.542376 1.277698 -2.604360 0.163290 0.311491 -1.209798 0.315416 0.629735 0.435250 0.322942 0.626888 37.392410 3.222325 -2.497185 -14.529687 -5.233131 -2.041849 -15.482393 -24.121202 -17.293105 52.139441 3.653436 87.094235 -0.000000 0.000000 0.000009 60.200222 -1.166338 0.741610 -0.000000 0.000002 -2.999997 -5.000305 -7.999048 0.000140 -14.504667 24.250645 15.841152 231.839980 180.612195 -279.309002 0.000002 0.000018 -0.000002 68.496853 -5.190820 -2.691111 -0.000003 -0.000003 3.007560 -5.000376 7.999260 -0.000109 3.411065 -175.959142 0.952149 -179.999991 0.000005 -0.987995 167.437675 0.111275 -0.843207 0.000003 -0.000003 0.152378 72.815369 5.662651 5.372302 25.456955 -7.355617 0.000002 8.261173 -180.232573 6.205625 -0.000005 -0.000004 -1.427970 -7.069222 4.798407 0.428948 -0.000001 -0.000002 -0.213855 72.989922 -7.739147 0.606759 25.456953 7.355613 -0.000001 
53.177105 -14.682309 94.046608 -7.199500 -0.546979 1.263516 -2.601689 0.162367 0.311620 -1.204539 0.313573 0.629860 0.440501 0.321108 0.627021 37.408167 3.180594 -2.476769 -14.490354 -5.171106 -2.024818 -15.478942 -24.086227 -17.286579 52.162448 3.916578 86.926656 0.000002 0.000000 0.000009 60.489043 -1.203915 0.754891 -0.000000 0.000004 -2.999999 -5.000303 -7.999051 0.000139 -14.517746 24.131806 15.854447 231.934974 180.796460 -279.398122 0.000001 0.000018 0.000001 68.768790 -5.145495 -2.738031 -0.000002 -0.000003 3.007560 -5.000380 7.999260 -0.000108 3.411409 -175.944184 0.961851 -179.999991 0.000006 -0.986998 167.426774 0.109310 -0.844620 0.000004 -0.000003 0.151926 72.816462 5.660156 5.380068 25.456955 -7.355617 0.000001 8.273996 -180.220688 6.213488 -0.000005 -0.000004 -1.428020 -7.061620 4.798824 0.427550 0.000000 -0.000002 -0.213646 72.987224 -7.741477 0.612721 25.456952 7.355613 -0.000001 
53.179104 -14.673812 94.043205 -7.207996 -0.551636 1.248695 -2.599188 0.160905 0.311789 -1.199476 0.310646 0.630062 0.445568 0.318191 0.627226 37.422262 3.144061 -2.456515 -14.440215 -5.105025 -2.006548 -15.474852 -24.046043 -17.278975 52.192402 4.175655 86.769405 0.000001 0.000003 0.000009 60.774648 -1.239311 0.767158 0.000001 0.000003 -2.999999 -5.000302 -7.999051 0.000141 -14.530416 24.022417 15.867496 232.023411 180.973853 -279.457736 -0.000001 0.000016 -0.000000 69.051812 -5.092863 -2.783322 0.000000 -0.000002 3.007558 -5.000379 7.999261 -0.000112 3.411764 -175.929212 0.971920 -179.999991 0.000005 -0.986001 167.416174 0.107360 -0.845034 0.000003 -0.000003 0.151358 72.816968 5.657455 5.388133 25.456959 -7.355616 0.000001 8.281462 -180.207820 6.221213 -0.000005 -0.000004 -1.427940 -7.058642 4.800214 0.425843 -0.000002 -0.000002 -0.213431 72.983734 -7.744049 0.619394 25.456953 7.355613 -0.000001 
53.185104 -14.676414 94.044601 -7.216644 -0.556341 1.233265 -2.596839 0.158979 0.311995 -1.194536 0.306786 0.630325 0.450506 0.314344 0.627488 37.434460 3.112193 -2.436421 -14.380495 -5.035703 -1.987251 -15.470228 -24.001426 -17.270536 52.229101 4.431343 86.621866 -0.000001 -0.000000 0.000009 61.055245 -1.272615 0.778393 0.000001 0.000001 -3.000003 -5.000302 -7.999051 0.000137 -14.542974 23.921377 15.880746 232.106412 181.144977 -279.491314 0.000000 0.000018 -0.000001 69.344336 -5.033741 -2.827384 0.000002 -0.000001 3.007562 -5.000379 7.999258 -0.000111 3.412161 -175.913243 0.982381 -179.999991 0.000005 -0.986001 167.405888 0.105396 -0.846450 0.000003 -0.000003 0.150689 72.816899 5.654582 5.396503 25.456957 -7.355618 0.000002 8.284353 -180.195949 6.228523 -0.000005 -0.000004 -1.427750 -7.059569 4.802477 0.423866 -0.000000 -0.000002 -0.213210 72.979492 -7.746914 0.626768 25.456950 7.355614 -0.000001 
53.193806 -14.683912 94.048500 -7.225416 -0.561085 1.217287 -2.594579 0.156664 0.312230 -1.189677 0.302147 0.630635 0.455367 0.309720 0.627793 37.444835 3.084435 -2.416486 -14.312521 -4.963963 -1.967142 -15.465532 -23.953407 -17.261614 52.271800 4.684402 86.483398 0.000001 0.000003 0.000010 61.329225 -1.303901 0.788578 0.000001 0.000001 -2.999998 -5.000303 -7.999051 0.000139 -14.555707 23.827378 15.894579 232.184740 181.310486 -279.502105 -0.000002 0.000018 0.000000 69.644884 -4.968936 -2.870486 0.000004 -0.000002 3.007561 -5.000379 7.999258 -0.000108 3.412629 -175.898258 0.993075 -179.999991 0.000006 -0.985004 167.395874 0.102472 -0.847084 0.000003 -0.000003 0.149933 72.816339 5.651537 5.405069 25.456960 -7.355615 0.000001 8.283451 -180.183068 6.235727 -0.000005 -0.000004 -1.427449 -7.063645 4.805481 0.421651 0.000000 -0.000002 -0.212982 72.974643 -7.749904 0.634584 25.456950 7.355614 -0.000001 
53.197002 -14.681212 94.047897 -7.234344 -0.565860 1.200782 -2.592385 0.154037 0.312488 -1.184845 0.296881 0.630975 0.460198 0.304470 0.628123 37.453370 3.060237 -2.396705 -14.237826 -4.890632 -1.946452 -15.460867 -23.902841 -17.252778 52.320229 4.935522 86.353221 0.000002 0.000003 0.000009 61.594967 -1.333247 0.797691 0.000001 0.000002 -2.999998 -5.000303 -7.999050 0.000140 -14.568800 23.739234 15.909370 232.259217 181.471037 -279.493417 -0.000002 0.000018 0.000001 69.951806 -4.899315 -2.912821 0.000003 -0.000001 3.007559 -5.000376 7.999257 -0.000108 3.413199 -175.882289 1.004084 -179.999991 0.000005 -0.984007 167.386176 0.100509 -0.847505 0.000003 -0.000003 0.149104 72.815137 5.648406 5.413956 25.456957 -7.355617 0.000001 8.279544 -180.170227 6.242700 -0.000005 -0.000004 -1.427070 -7.070136 4.809127 0.419242 0.000000 -0.000002 -0.212749 72.969124 -7.753116 0.642918 25.456948 7.355613 -0.000001 
53.196205 -14.684508 94.040810 -7.243381 -0.570660 1.183821 -2.590208 0.151173 0.312764 -1.179974 0.291140 0.631333 0.465060 0.298746 0.628468 37.459913 3.039051 -2.377064 -14.157430 -4.816540 -1.925350 -15.456452 -23.850597 -17.244230 52.373774 5.185455 86.230633 0.000001 0.000003 0.000009 61.850689 -1.360748 0.805713 -0.000001 0.000001 -3.000001 -5.000304 -7.999048 0.000138 -14.582572 23.655928 15.925575 232.330852 181.627352 -279.468364 -0.000000 0.000018 0.000002 70.263624 -4.825671 -2.954532 0.000002 -0.000002 3.007563 -5.000379 7.999258 -0.000113 3.413902 -175.865336 1.015369 -179.999991 0.000005 -0.982996 167.376887 0.097586 -0.849140 0.000003 -0.000003 0.148217 72.813553 5.645129 5.422940 25.456957 -7.355617 0.000001 8.273417 -180.158342 6.249346 -0.000005 -0.000004 -1.426600 -7.078309 4.813290 0.416675 -0.000001 -0.000002 -0.212508 72.962984 -7.756424 0.651596 25.456950 7.355613 -0.000001 
53.202503 -14.685011 94.042801 -7.252539 -0.575475 1.166416 -2.587996 0.148149 0.313050 -1.175034 0.285078 0.631691 0.470000 0.292700 0.628812 37.464568 3.020322 -2.357564 -14.072966 -4.742508 -1.904052 -15.452646 -23.797801 -17.236508 52.432108 5.434942 86.115121 0.000002 0.000004 0.000009 62.094759 -1.386463 0.812587 -0.000001 0.000003 -3.000003 -5.000302 -7.999051 0.000139 -14.597525 23.576143 15.943676 232.400219 181.780130 -279.430088 0.000001 0.000017 0.000001 70.578565 -4.748809 -2.996200 0.000004 -0.000001 3.007558 -5.000376 7.999259 -0.000109 3.414764 -175.849354 1.026775 -179.999991 0.000006 -0.981999 167.367980 0.094649 -0.849782 0.000004 -0.000003 0.147286 72.811524 5.641734 5.432228 25.456953 -7.355617 0.000001 8.265875 -180.145474 6.255968 -0.000005 -0.000004 -1.426080 -7.087419 4.817870 0.413987 -0.000001 -0.000002 -0.212262 72.956345 -7.759845 0.660521 25.456950 7.355613 -0.000001 
